<?xml version="1.0" encoding="UTF-8" standalone="no"?>
<!-- Created with Inkscape (http://www.inkscape.org/) -->

<svg
   width="1536"
   height="1536"
   viewBox="0 0 406.39998 406.40001"
   version="1.1"
   id="svg1"
   inkscape:version="1.4.3 (0d15f75, 2025-12-25)"
   sodipodi:docname="expertise.svg"
   xml:space="preserve"
   xmlns:inkscape="http://www.inkscape.org/namespaces/inkscape"
   xmlns:sodipodi="http://sodipodi.sourceforge.net/DTD/sodipodi-0.dtd"
   xmlns:xlink="http://www.w3.org/1999/xlink"
   xmlns="http://www.w3.org/2000/svg"
   xmlns:svg="http://www.w3.org/2000/svg"><sodipodi:namedview
     id="namedview1"
     pagecolor="#ffffff"
     bordercolor="#000000"
     borderopacity="0.25"
     inkscape:showpageshadow="2"
     inkscape:pageopacity="0.0"
     inkscape:pagecheckerboard="0"
     inkscape:deskcolor="#d1d1d1"
     inkscape:document-units="px"
     inkscape:zoom="0.30405642"
     inkscape:cx="863.32661"
     inkscape:cy="544.30687"
     inkscape:window-width="1366"
     inkscape:window-height="745"
     inkscape:window-x="-8"
     inkscape:window-y="-8"
     inkscape:window-maximized="1"
     inkscape:current-layer="layer1" /><defs
     id="defs1"><linearGradient
       inkscape:collect="always"
       xlink:href="#linearGradient10"
       id="linearGradient18"
       x1="203.2"
       y1="0"
       x2="203.2"
       y2="406.39999"
       gradientUnits="userSpaceOnUse"
       gradientTransform="translate(1.1425779e-6)" /><linearGradient
       id="linearGradient10"
       inkscape:collect="always"
       inkscape:label="gradient v"><stop
         style="stop-color:#ffffff;stop-opacity:0;"
         offset="0"
         id="stop7" /><stop
         style="stop-color:#ffffff;stop-opacity:0.5;"
         offset="0.20145631"
         id="stop8" /><stop
         style="stop-color:#ffffff;stop-opacity:0.5;"
         offset="0.79563105"
         id="stop9" /><stop
         style="stop-color:#ffffff;stop-opacity:0;"
         offset="1"
         id="stop10" /></linearGradient><linearGradient
       inkscape:collect="always"
       xlink:href="#linearGradient10"
       id="linearGradient13"
       gradientUnits="userSpaceOnUse"
       gradientTransform="matrix(-1,0,0,1,406.39999,-85.882418)"
       x1="201.87708"
       y1="290.40533"
       x2="407.7229"
       y2="170.44194" /><linearGradient
       inkscape:collect="always"
       xlink:href="#linearGradient16"
       id="linearGradient12"
       x1="0"
       y1="289.08243"
       x2="406.39999"
       y2="289.08243"
       gradientUnits="userSpaceOnUse"
       gradientTransform="translate(3.6425781e-6,-85.882418)" /><linearGradient
       id="linearGradient16"
       inkscape:collect="always"
       inkscape:label="gradient d"><stop
         style="stop-color:#ffffff;stop-opacity:0;"
         offset="0"
         id="stop13" /><stop
         style="stop-color:#ffffff;stop-opacity:0.5;"
         offset="0.15278374"
         id="stop14" /><stop
         style="stop-color:#ffffff;stop-opacity:0.5;"
         offset="0.85315317"
         id="stop15" /><stop
         style="stop-color:#ffffff;stop-opacity:0;"
         offset="1"
         id="stop16" /></linearGradient><linearGradient
       inkscape:collect="always"
       xlink:href="#linearGradient6"
       id="linearGradient5"
       x1="172.13223"
       y1="-406.39999"
       x2="172.13223"
       y2="0"
       gradientUnits="userSpaceOnUse"
       gradientTransform="translate(127.46949)" /><linearGradient
       id="linearGradient6"
       inkscape:collect="always"
       inkscape:label="gradient"><stop
         style="stop-color:#ffffff;stop-opacity:0;"
         offset="0.05"
         id="stop5" /><stop
         style="stop-color:#ffffff;stop-opacity:0.5;"
         offset="0.34999999"
         id="stop6" /><stop
         style="stop-color:#ffffff;stop-opacity:0.5;"
         offset="0.64999998"
         id="stop11" /><stop
         style="stop-color:#ffffff;stop-opacity:0;"
         offset="0.94999999"
         id="stop12" /></linearGradient><linearGradient
       inkscape:collect="always"
       xlink:href="#linearGradient6"
       id="linearGradient14"
       x1="149.33057"
       y1="-406.39999"
       x2="149.33057"
       y2="0"
       gradientUnits="userSpaceOnUse"
       gradientTransform="translate(-43.660734,-0.05290256)" /><linearGradient
       inkscape:collect="always"
       xlink:href="#linearGradient10"
       id="linearGradient8"
       gradientUnits="userSpaceOnUse"
       gradientTransform="translate(64.616234,-0.2116676)"
       x1="235.08292"
       y1="-1.877224e-06"
       x2="235.08292"
       y2="406.39999" /><linearGradient
       inkscape:collect="always"
       xlink:href="#linearGradient10"
       id="linearGradient78"
       x1="235.08292"
       y1="-1.877224e-06"
       x2="235.08292"
       y2="406.39999"
       gradientUnits="userSpaceOnUse"
       gradientTransform="translate(-130.82886,-0.2116676)" /><linearGradient
       inkscape:collect="always"
       xlink:href="#linearGradient6"
       id="linearGradient22"
       x1="106.99278"
       y1="-406.45291"
       x2="106.99278"
       y2="-0.05291748"
       gradientUnits="userSpaceOnUse" /></defs><g
     inkscape:label="Слой 1"
     inkscape:groupmode="layer"
     id="layer1"><rect
       style="fill:url(#linearGradient78);fill-opacity:1;stroke-width:0.264583;stroke-linecap:round;stroke-linejoin:round;stroke-dasharray:1.05833;stroke-dashoffset:0"
       id="rect2"
       width="2.6458333"
       height="406.39999"
       x="104.25406"
       y="-0.21166882" /><rect
       style="fill:url(#linearGradient8);fill-opacity:1;stroke-width:0.264583;stroke-linecap:round;stroke-linejoin:round;stroke-dasharray:1.05833;stroke-dashoffset:0"
       id="rect4"
       width="2.6458333"
       height="406.39999"
       x="299.69913"
       y="-0.21166882" /><rect
       style="display:inline;fill:url(#linearGradient22);stroke-width:0.264583;stroke-linecap:round;stroke-linejoin:round;stroke-dasharray:1.05833;stroke-dashoffset:0;fill-opacity:1"
       id="rect22"
       width="2.6458333"
       height="406.39999"
       x="104.34695"
       y="-406.45291"
       transform="rotate(90)" /><rect
       style="fill:url(#linearGradient5);fill-opacity:1;stroke-width:0.264583;stroke-linecap:round;stroke-linejoin:round;stroke-dasharray:1.05833;stroke-dashoffset:0"
       id="rect23"
       width="2.6458333"
       height="406.39999"
       x="299.60175"
       y="-406.39999"
       transform="rotate(90)" /><path
       style="fill:none;fill-opacity:1;stroke:url(#linearGradient12);stroke-width:2.64583;stroke-linecap:round;stroke-dasharray:31.75, 31.75;stroke-dashoffset:3.43958"
       d="M 3.6425781e-6,320.51757 406.39999,85.882432"
       id="path8" /><path
       style="fill:none;fill-opacity:1;stroke:url(#linearGradient13);stroke-width:2.64583;stroke-linecap:round;stroke-dasharray:31.74995899,31.74995899;stroke-dashoffset:48.15410447"
       d="M 203.2,203.2 3.6425781e-6,85.882432"
       id="path12"
       sodipodi:nodetypes="cc" /><path
       style="fill:none;fill-opacity:1;stroke:url(#linearGradient18);stroke-width:2.64583;stroke-linecap:round;stroke-dasharray:31.75, 31.75;stroke-dashoffset:0;stroke-opacity:1"
       d="M 203.2,3.7011714e-6 V 406.39999"
       id="path17" /><path
       id="path19"
       style="fill:#ece7b6;fill-opacity:1;stroke-width:1.7439"
       d="M 191.01521 103.98125 C 191.01018 103.98146 191.0053 103.98267 191.00074 103.98435 C 190.72349 104.08634 188.16315 104.555 185.31065 105.02615 L 180.12389 105.88294 L 180.12389 113.52123 L 180.12337 121.15953 L 174.83274 122.99456 C 171.49163 124.15311 169.39648 124.66366 169.1473 124.38 C 168.82914 124.01779 160.87131 113.70413 160.48736 113.1564 C 160.40146 113.03388 150.81749 118.38503 150.22597 118.88577 C 150.10154 118.99109 153.44219 129.50805 154.6381 132.77587 C 154.81387 133.25618 147.93516 139.21751 146.61741 139.72687 C 146.31807 139.84258 143.31026 138.15717 139.93306 135.98136 L 133.79235 132.02501 L 130.48092 135.59792 C 125.47138 141.00246 125.54044 140.44926 129.27841 145.23816 C 131.03505 147.48868 133.05514 150.11135 133.76703 151.06623 L 135.06101 152.80204 L 132.17643 157.18524 C 130.58968 159.59578 129.05903 161.56471 128.7756 161.56171 C 128.49216 161.55846 125.25259 160.84754 121.57604 159.98196 C 117.89949 159.11637 114.75492 158.5476 114.58835 158.71796 C 114.29111 159.02178 112.72239 162.66286 110.971 167.11383 L 110.0863 169.36124 L 116.29213 173.38063 C 119.70525 175.59139 122.49313 177.52667 122.48813 177.68114 C 122.46273 178.41378 120.29499 187.48019 120.09809 187.67743 C 119.97463 187.80109 116.54443 188.24787 112.4753 188.67014 L 105.07679 189.43805 L 104.77138 193.85948 C 104.60317 196.29144 104.35621 198.92516 104.22309 199.71184 L 103.98125 201.14224 L 111.12552 203.12352 C 115.05491 204.21339 118.48114 205.23637 118.73952 205.39625 C 118.99788 205.5562 119.2752 207.95585 119.3555 210.72925 L 119.50123 215.77184 L 112.81637 218.8962 C 107.76557 221.25698 106.15117 222.21685 106.21057 222.82309 C 106.25382 223.26438 106.86077 225.78534 107.55932 228.42533 L 108.82953 233.22555 L 115.08755 232.87726 C 125.65273 232.28908 124.1701 231.74367 126.49099 237.07338 L 128.50172 241.69119 L 122.75065 247.15649 L 116.99906 252.62127 L 119.60717 256.3921 C 121.04169 258.46623 122.5494 260.60678 122.95735 261.14891 L 123.69891 262.1349 L 130.58996 259.19555 C 134.37987 257.57903 137.6879 256.25615 137.94145 256.25567 C 138.60564 256.25437 144.62631 262.9741 144.62631 263.71672 C 144.62631 264.0595 143.0879 267.3528 141.2074 271.03513 L 137.78797 277.73033 L 142.36444 281.32598 L 146.9409 284.92214 L 152.79377 279.585 C 156.013 276.64983 158.76846 274.24837 158.91691 274.24837 C 159.14869 274.24837 167.19934 278.75172 167.58512 279.09717 C 167.66139 279.16547 167.18887 282.80763 166.53557 287.19074 C 165.88227 291.57385 165.40527 295.21063 165.47517 295.27293 C 166.07398 295.80613 176.19316 298.68727 176.46675 298.40245 C 176.66279 298.1984 178.52268 294.95982 180.60034 291.20548 C 183.47531 286.01035 184.5583 284.43228 185.13237 284.60071 C 185.54723 284.72247 187.23492 285.04763 188.88304 285.32315 C 194.9929 286.34449 194.13702 285.23446 195.85574 294.36549 L 197.37193 302.41875 L 203.00828 302.41875 C 203.07295 302.41875 203.13676 302.41878 203.2 302.41875 L 203.2 219.68116 C 202.15155 219.66583 201.08733 219.44594 199.48653 219.0197 C 196.52887 218.23217 192.88943 215.86174 191.0395 213.51823 C 187.63092 209.20015 186.52505 202.48113 188.40245 197.49544 C 189.55304 194.43987 192.75183 190.65725 195.50589 189.09543 C 203.16827 184.75013 212.87096 187.46787 217.37588 195.01548 L 277.12985 160.5163 C 276.70853 160.5982 276.43007 160.64394 276.33558 160.64394 C 275.95718 160.64394 274.36748 158.66424 272.80247 156.24421 L 269.95716 151.84396 L 274.59926 145.58853 C 277.15242 142.14786 279.24135 139.14922 279.24135 138.92537 C 279.24135 138.70154 277.52978 136.73802 275.43796 134.56181 L 271.63458 130.60495 L 265.41067 134.75921 C 261.98767 137.04392 258.92186 138.9194 258.59765 138.9264 C 258.27344 138.93358 256.17159 137.48813 253.92662 135.7142 L 249.8447 132.48855 L 251.8177 126.29565 C 254.97548 116.38425 255.25433 117.69841 249.36514 114.73977 L 244.31997 112.20452 L 239.76727 118.1716 C 236.58474 122.34285 234.93723 124.13637 234.29267 124.12937 C 233.78556 124.12423 231.29627 123.34858 228.76071 122.40596 L 224.15066 120.69186 L 224.02405 112.95951 C 223.95455 108.70673 223.85087 105.22503 223.79357 105.22303 C 223.73632 105.22073 221.30358 104.921 218.3877 104.55692 C 215.47181 104.19277 212.91705 104.06309 212.71053 104.26805 C 212.50398 104.47302 211.3382 107.62984 210.11947 111.28365 L 207.90359 117.92717 L 202.19696 117.92717 L 196.48981 117.92717 L 193.99746 110.863 C 192.57798 106.83986 191.33199 103.96763 191.01521 103.98125 z M 212.51157 147.28558 C 213.20264 147.27882 214.20487 147.60322 215.65608 147.91138 C 223.35993 149.54729 230.53579 152.8313 236.82844 157.60123 C 241.74798 161.33033 248.25643 167.85854 247.64483 168.45018 C 247.40058 168.68648 242.66232 171.49514 237.11524 174.69114 C 231.56815 177.88714 226.79696 180.49689 226.51227 180.49389 C 226.22759 180.48961 222.62321 178.57398 218.50294 176.23679 L 211.01141 171.98743 L 211.01141 159.61971 C 211.01141 149.48258 210.74551 147.30286 212.51157 147.28558 z M 196.27432 147.71346 L 196.15185 159.79076 L 196.02886 171.86806 L 188.65257 176.18253 L 188.65257 176.18356 C 184.59567 178.55652 180.96517 180.49424 180.58484 180.48924 C 180.20451 180.48442 175.64071 177.97814 170.44282 174.91955 C 165.24495 171.86096 160.69997 169.18965 160.34318 168.98348 C 159.34951 168.40931 161.04223 165.99919 165.3036 161.92086 C 169.08189 158.30486 174.11724 154.66094 178.04908 152.69714 C 183.40418 150.0225 191.06782 147.74246 194.76847 147.72276 L 196.27432 147.71346 z M 151.953 180.79568 C 152.13153 180.78404 152.33455 180.90444 152.61084 181.08145 C 153.16377 181.4357 157.92484 184.18001 163.19107 187.17979 L 172.76568 192.63423 L 172.64166 202.36439 L 172.51712 212.09454 L 162.3751 218.04405 C 156.79687 221.31631 152.00865 224.08783 151.73492 224.20285 C 151.29589 224.38727 150.32938 221.64474 148.29534 214.44479 C 148.00831 213.42882 147.66061 209.33804 147.52278 205.35439 C 147.2382 197.12525 147.89435 192.14966 150.24147 184.74118 C 151.19909 181.71854 151.49675 180.82542 151.953 180.79568 z M 178.98339 225.14439 C 179.92891 225.13603 181.86905 226.177 187.87639 229.74825 L 196.25934 234.73141 L 196.25934 247.10119 C 196.25934 256.70978 196.13078 259.46191 195.68314 259.43171 C 194.49942 259.35173 187.64762 257.67913 185.42537 256.92747 C 181.33482 255.54385 175.6251 252.67562 171.95126 250.15889 C 168.06538 247.4969 158.30206 237.99952 158.58308 237.15503 C 158.72193 236.73777 174.80384 227.14306 178.54104 225.24775 C 178.66743 225.18365 178.80829 225.14594 178.98339 225.14439 z " /><path
       style="fill:none;fill-opacity:0.275689;stroke:#ffffff;stroke-width:2.64583;stroke-linecap:round;stroke-dasharray:2.64583, 7.9375;stroke-dashoffset:0;stroke-opacity:0.501961"
       id="path23"
       sodipodi:type="arc"
       sodipodi:cx="203.29951"
       sodipodi:cy="203.2"
       sodipodi:rx="16.536459"
       sodipodi:ry="16.536459"
       sodipodi:start="5.7435535"
       sodipodi:end="1.5745828"
       sodipodi:arc-type="arc"
       d="m 217.48611,194.70323 a 16.536459,16.536459 0 0 1 0.18476,16.67715 16.536459,16.536459 0 0 1 -14.43397,8.35596"
       sodipodi:open="true" /><path
       id="path35"
       style="fill:none;fill-opacity:0.270677;stroke:#ffffff;stroke-width:2.64583;stroke-linecap:round;stroke-dasharray:2.64583, 7.93742;stroke-opacity:0.501961"
       d="M 225.69526 225.25757 L 210.14996 234.14229 L 210.14996 259.65908 A 56.885414 56.885414 0 0 0 247.94352 238.32757 L 225.69526 225.25757 z " /><path
       id="path39"
       style="fill:none;fill-opacity:0.270677;stroke:#ffffff;stroke-width:2.64583;stroke-linecap:round;stroke-dasharray:2.64583, 7.9375;stroke-dashoffset:0;stroke-opacity:0.501961"
       d="M 255.7141 181.33157 L 233.86221 193.89049 L 233.86221 213.31669 L 255.28777 226.06527 A 56.885414 56.885414 0 0 0 255.7141 181.33157 z " /><path
       style="fill:none;fill-opacity:0.203008;stroke:#ffffff;stroke-width:2.64583;stroke-linecap:round;stroke-dasharray:2.64583, 7.9375;stroke-dashoffset:48.1543;stroke-opacity:0.501961"
       d="m 277.93407,163.3592 14.65247,-2.88637 4.34252,10.70937 -12.04275,8.02107 1.74957,10.63848 14.38616,2.21159 v 12.27513 l -13.31223,2.93043 -0.75638,10.58658 12.94163,6.70193 -3.20462,11.30718 -14.05978,-1.81278 -5.48404,10.03847 10.80181,10.80254 -6.34859,9.03361 -13.74047,-5.97772 -8.07077,8.07077 6.25943,13.05747 -8.51216,7.16161 -11.19062,-10.6856 -9.60217,4.74079 1.34178,15.52251 -11.65113,3.79549 -6.59842,-14.23189 -10.74152,1.63702 -3.33435,15.10266 -5.48732,-0.10852"
       id="path42"
       sodipodi:nodetypes="ccccccccccccccccccccccccccc" /></g></svg>
