<?xml version="1.0" encoding="UTF-8" standalone="no"?>
<!-- Created with Inkscape (http://www.inkscape.org/) -->

<svg
   width="6144"
   height="1280"
   viewBox="0 0 1625.5999 338.66667"
   version="1.1"
   id="svg1"
   inkscape:version="1.4.3 (0d15f75, 2025-12-25)"
   sodipodi:docname="logo-with-text.svg"
   xmlns:inkscape="http://www.inkscape.org/namespaces/inkscape"
   xmlns:sodipodi="http://sodipodi.sourceforge.net/DTD/sodipodi-0.dtd"
   xmlns="http://www.w3.org/2000/svg"
   xmlns:svg="http://www.w3.org/2000/svg">
  <sodipodi:namedview
     id="namedview1"
     pagecolor="#ffffff"
     bordercolor="#000000"
     borderopacity="0.25"
     inkscape:showpageshadow="2"
     inkscape:pageopacity="0.0"
     inkscape:pagecheckerboard="0"
     inkscape:deskcolor="#d1d1d1"
     inkscape:document-units="px"
     inkscape:zoom="0.0625"
     inkscape:cx="2856"
     inkscape:cy="3128"
     inkscape:window-width="1680"
     inkscape:window-height="1027"
     inkscape:window-x="-8"
     inkscape:window-y="-8"
     inkscape:window-maximized="1"
     inkscape:current-layer="layer1" />
  <defs
     id="defs1" />
  <g
     inkscape:label="Слой 1"
     inkscape:groupmode="layer"
     id="layer1">
    <path
       id="text1"
       style="font-weight:500;font-size:352.778px;line-height:1;font-family:'Salma Pro';-inkscape-font-specification:'Salma Pro Medium';letter-spacing:-0.0926042px;fill:#ece7b6;fill-opacity:0.854902;stroke-width:0.3;stroke-linecap:round;stroke-linejoin:round"
       d="m 255.50072,49.628582 -7.43779,43.733764 -26.18032,2.975013 v 4.802291 h 19.1779 v 18.99833 h 7.00242 v 3.1781 h 23.41614 l 0.1943,95.21279 h -22.64254 c 3.61519,22.15705 17.4642,29.53721 42.46821,29.53721 9.81775,0 19.93331,-1.48741 26.47848,-3.86746 v -27.07328 c -5.05763,1.48753 -12.19824,2.67735 -18.4459,2.67735 -15.17288,0 -20.23029,-6.84261 -20.23029,-20.52794 v -79.13677 h 38.97333 V 93.362346 H 279.30133 V 49.628582 Z"
       sodipodi:nodetypes="cccccccccccsccsscccccc" />
    <rect
       style="fill:#ece7b6;fill-opacity:0.854902;stroke-width:0.3;stroke-linecap:round;stroke-linejoin:round"
       id="rect3"
       width="4.2333331"
       height="4.2333331"
       x="114.22095"
       y="146.69255" />
    <rect
       style="fill:#ece7b6;fill-opacity:0.854902;stroke-width:0.3;stroke-linecap:round;stroke-linejoin:round"
       id="rect4"
       width="4.2333331"
       height="4.2333331"
       x="128.17871"
       y="136.894" />
    <rect
       style="fill:#ece7b6;fill-opacity:0.854902;stroke-width:0.3;stroke-linecap:round;stroke-linejoin:round"
       id="rect5"
       width="4.2333331"
       height="4.2333331"
       x="143.05779"
       y="126.44865" />
    <rect
       style="fill:#ece7b6;fill-opacity:0.854902;stroke-width:0.3;stroke-linecap:round;stroke-linejoin:round"
       id="rect6"
       width="4.2333331"
       height="4.2333331"
       x="132.41205"
       y="158.73306" />
    <rect
       style="fill:#ece7b6;fill-opacity:0.854902;stroke-width:0.3;stroke-linecap:round;stroke-linejoin:round"
       id="rect7"
       width="4.2333331"
       height="4.2333331"
       x="139.41747"
       y="145.08377" />
    <rect
       style="fill:#ece7b6;fill-opacity:0.854902;stroke:none;stroke-width:0.264583;stroke-linecap:round;stroke-linejoin:round;stroke-dasharray:none;stroke-opacity:1"
       id="rect8"
       width="8.4666662"
       height="8.4666662"
       x="161.42007"
       y="120.09865" />
    <rect
       style="fill:#ece7b6;fill-opacity:0.854902;stroke:none;stroke-width:0.264583;stroke-linecap:round;stroke-linejoin:round;stroke-dasharray:none;stroke-opacity:1"
       id="rect9"
       width="8.4666662"
       height="8.4666662"
       x="150.65623"
       y="136.894" />
    <rect
       style="fill:#ece7b6;fill-opacity:0.854902;stroke:none;stroke-width:0.264583;stroke-linecap:round;stroke-linejoin:round;stroke-dasharray:none;stroke-opacity:1"
       id="rect10"
       width="8.4666662"
       height="8.4666662"
       x="152.9534"
       y="158.08263" />
    <rect
       style="fill:#ece7b6;fill-opacity:0.854902;stroke:none;stroke-width:0.264583;stroke-linecap:round;stroke-linejoin:round;stroke-dasharray:none;stroke-opacity:1"
       id="rect11"
       width="8.4666662"
       height="8.4666662"
       x="169.88673"
       y="172.4478" />
    <rect
       style="fill:#ece7b6;fill-opacity:0.854902;stroke:none;stroke-width:0.264583;stroke-linecap:round;stroke-linejoin:round;stroke-dasharray:none;stroke-opacity:1"
       id="rect12"
       width="8.4666662"
       height="8.4666662"
       x="173.72552"
       y="142.88373" />
    <rect
       style="fill:#ece7b6;fill-opacity:0.854902;stroke:none;stroke-width:0.264583;stroke-linecap:round;stroke-linejoin:round;stroke-dasharray:none;stroke-opacity:1"
       id="rect13"
       width="8.4666662"
       height="8.4666662"
       x="175.46568"
       y="100.30467" />
    <rect
       style="fill:#ece7b6;fill-opacity:0.854902;stroke:none;stroke-width:0.264583;stroke-linecap:round;stroke-linejoin:round;stroke-dasharray:none;stroke-opacity:1"
       id="rect15"
       width="12.7"
       height="12.7"
       x="189.96786"
       y="118.49897" />
    <rect
       style="fill:#ece7b6;fill-opacity:0.854902;stroke:none;stroke-width:0.264583;stroke-linecap:round;stroke-linejoin:round;stroke-dasharray:none;stroke-opacity:1"
       id="rect16"
       width="12.7"
       height="12.7"
       x="196.31787"
       y="133.89954" />
    <rect
       style="fill:#ece7b6;fill-opacity:0.854902;stroke:none;stroke-width:0.264583;stroke-linecap:round;stroke-linejoin:round;stroke-dasharray:none;stroke-opacity:1"
       id="rect17"
       width="12.7"
       height="12.7"
       x="186.82007"
       y="163.55215" />
    <rect
       style="fill:#ece7b6;fill-opacity:0.854902;stroke:none;stroke-width:0.264583;stroke-linecap:round;stroke-linejoin:round;stroke-dasharray:none;stroke-opacity:1"
       id="rect18"
       width="12.7"
       height="12.7"
       x="194.65479"
       y="184.13687" />
    <rect
       style="fill:#ece7b6;fill-opacity:0.854902;stroke-width:0.3;stroke-linecap:round;stroke-linejoin:round"
       id="rect19"
       width="4.2333331"
       height="4.2333331"
       x="169.88673"
       y="159.31882" />
    <rect
       style="fill:#ece7b6;fill-opacity:0.854902;stroke-width:0.3;stroke-linecap:round;stroke-linejoin:round"
       id="rect20"
       width="4.2333331"
       height="4.2333331"
       x="173.72552"
       y="133.10237" />
    <rect
       style="fill:#ece7b6;fill-opacity:0.854902;stroke-width:0.3;stroke-linecap:round;stroke-linejoin:round"
       id="rect21"
       width="4.2333331"
       height="4.2333331"
       x="184.30885"
       y="184.22057" />
    <rect
       style="fill:#ece7b6;fill-opacity:0.854902;stroke:none;stroke-width:0.264583;stroke-linecap:round;stroke-linejoin:round;stroke-dasharray:none;stroke-opacity:1"
       id="rect24"
       width="21.166668"
       height="21.166668"
       x="248.06293"
       y="125.43287" />
    <rect
       style="fill:#ece7b6;fill-opacity:0.854902;stroke:none;stroke-width:0.264583;stroke-linecap:round;stroke-linejoin:round;stroke-dasharray:none;stroke-opacity:1"
       id="rect24-8"
       width="21.166668"
       height="21.166668"
       x="225.61055"
       y="67.533691" />
    <rect
       style="fill:#ece7b6;fill-opacity:0.854902;stroke:none;stroke-width:0.264583;stroke-linecap:round;stroke-linejoin:round;stroke-dasharray:none;stroke-opacity:1"
       id="rect25"
       width="21.166668"
       height="21.166668"
       x="223.14354"
       y="144.45818" />
    <rect
       style="fill:#ece7b6;fill-opacity:0.854902;stroke:none;stroke-width:0.264583;stroke-linecap:round;stroke-linejoin:round;stroke-dasharray:none;stroke-opacity:1"
       id="rect27"
       width="12.7"
       height="12.7"
       x="212.02254"
       y="127.54954" />
    <rect
       style="fill:#ece7b6;fill-opacity:0.854902;stroke:none;stroke-width:0.264583;stroke-linecap:round;stroke-linejoin:round;stroke-dasharray:none;stroke-opacity:1"
       id="rect28"
       width="16.933332"
       height="16.933332"
       x="227.72722"
       y="205.72348" />
    <rect
       style="fill:#ece7b6;fill-opacity:0.854902;stroke:none;stroke-width:0.264583;stroke-linecap:round;stroke-linejoin:round;stroke-dasharray:none;stroke-opacity:1"
       id="rect29"
       width="12.7"
       height="12.7"
       x="207.11739"
       y="111.0115" />
    <rect
       style="fill:#ece7b6;fill-opacity:0.854902;stroke:none;stroke-width:0.264583;stroke-linecap:round;stroke-linejoin:round;stroke-dasharray:none;stroke-opacity:1"
       id="rect30"
       width="8.4666662"
       height="8.4666662"
       x="198.67415"
       y="100.30467" />
    <rect
       style="fill:#ece7b6;fill-opacity:0.854902;stroke:none;stroke-width:0.264583;stroke-linecap:round;stroke-linejoin:round;stroke-dasharray:none;stroke-opacity:1"
       id="rect32"
       width="8.4666662"
       height="8.4666662"
       x="177.0517"
       y="118.12431" />
    <rect
       style="fill:#ece7b6;fill-opacity:0.854902;stroke:none;stroke-width:0.264583;stroke-linecap:round;stroke-linejoin:round;stroke-dasharray:none;stroke-opacity:1"
       id="rect38"
       width="21.166668"
       height="21.166668"
       x="248.06293"
       y="148.66862" />
    <rect
       style="fill:#ece7b6;fill-opacity:0.854902;stroke:none;stroke-width:0.264583;stroke-linecap:round;stroke-linejoin:round;stroke-dasharray:none;stroke-opacity:1"
       id="rect39"
       width="21.166668"
       height="21.166668"
       x="248.06293"
       y="171.90439" />
    <rect
       style="fill:#ece7b6;fill-opacity:0.854902;stroke:none;stroke-width:0.264583;stroke-linecap:round;stroke-linejoin:round;stroke-dasharray:none;stroke-opacity:1"
       id="rect40"
       width="21.166668"
       height="21.166668"
       x="248.06293"
       y="195.14015" />
    <rect
       style="fill:#ece7b6;fill-opacity:0.854902;stroke:none;stroke-width:0.264583;stroke-linecap:round;stroke-linejoin:round;stroke-dasharray:none;stroke-opacity:1"
       id="rect42"
       width="16.933332"
       height="16.933332"
       x="202.4575"
       y="152.00067" />
    <rect
       style="fill:#ece7b6;fill-opacity:0.854902;stroke:none;stroke-width:0.264583;stroke-linecap:round;stroke-linejoin:round;stroke-dasharray:none;stroke-opacity:1"
       id="rect43"
       width="16.933332"
       height="16.933332"
       x="227.72722"
       y="122.73231" />
    <rect
       style="fill:#ece7b6;fill-opacity:0.854902;stroke:none;stroke-width:0.264583;stroke-linecap:round;stroke-linejoin:round;stroke-dasharray:none;stroke-opacity:1"
       id="rect44"
       width="16.933332"
       height="16.933332"
       x="198.65071"
       y="80.763931" />
    <rect
       style="fill:#ece7b6;fill-opacity:0.854902;stroke:none;stroke-width:0.264583;stroke-linecap:round;stroke-linejoin:round;stroke-dasharray:none;stroke-opacity:1"
       id="rect45"
       width="16.933332"
       height="16.933332"
       x="227.72722"
       y="170.41739" />
    <rect
       style="fill:#ece7b6;fill-opacity:0.854902;stroke:none;stroke-width:0.264583;stroke-linecap:round;stroke-linejoin:round;stroke-dasharray:none;stroke-opacity:1"
       id="rect46"
       width="12.7"
       height="12.7"
       x="209.23405"
       y="174.56447" />
    <rect
       style="fill:#ece7b6;fill-opacity:0.854902;stroke:none;stroke-width:0.264583;stroke-linecap:round;stroke-linejoin:round;stroke-dasharray:none;stroke-opacity:1"
       id="rect47"
       width="12.7"
       height="12.7"
       x="227.37689"
       y="190.1871" />
    <rect
       style="fill:#ece7b6;fill-opacity:0.854902;stroke:none;stroke-width:0.264583;stroke-linecap:round;stroke-linejoin:round;stroke-dasharray:none;stroke-opacity:1"
       id="rect48"
       width="12.7"
       height="12.7"
       x="211.01584"
       y="190.48688" />
    <rect
       style="fill:#ece7b6;fill-opacity:0.854902;stroke:none;stroke-width:0.264583;stroke-linecap:round;stroke-linejoin:round;stroke-dasharray:none;stroke-opacity:1"
       id="rect49"
       width="8.4666662"
       height="8.4666662"
       x="206.63531"
       y="206.40929" />
    <rect
       style="fill:#ece7b6;fill-opacity:0.854902;stroke:none;stroke-width:0.264583;stroke-linecap:round;stroke-linejoin:round;stroke-dasharray:none;stroke-opacity:1"
       id="rect50"
       width="8.4666662"
       height="8.4666662"
       x="240.42722"
       y="224.09625" />
    <rect
       style="fill:#ece7b6;fill-opacity:0.854902;stroke:none;stroke-width:0.264583;stroke-linecap:round;stroke-linejoin:round;stroke-dasharray:none;stroke-opacity:1"
       id="rect51"
       width="12.7"
       height="12.7"
       x="238.31055"
       y="49.049446" />
    <rect
       style="fill:#ece7b6;fill-opacity:0.854902;stroke:none;stroke-width:0.264583;stroke-linecap:round;stroke-linejoin:round;stroke-dasharray:none;stroke-opacity:1"
       id="rect52"
       width="8.4666662"
       height="8.4666662"
       x="187.91644"
       y="107.33173" />
    <rect
       style="fill:#ece7b6;fill-opacity:0.854902;stroke:none;stroke-width:0.264583;stroke-linecap:round;stroke-linejoin:round;stroke-dasharray:none;stroke-opacity:1"
       id="rect53"
       width="8.4666662"
       height="8.4666662"
       x="184.84653"
       y="135.94394" />
    <rect
       style="fill:#ece7b6;fill-opacity:0.854902;stroke:none;stroke-width:0.264583;stroke-linecap:round;stroke-linejoin:round;stroke-dasharray:none;stroke-opacity:1"
       id="rect54"
       width="8.4666662"
       height="8.4666662"
       x="190.23814"
       y="149.30009" />
    <rect
       style="fill:#ece7b6;fill-opacity:0.854902;stroke-width:0.3;stroke-linecap:round;stroke-linejoin:round"
       id="rect55"
       width="4.2333331"
       height="4.2333331"
       x="180.06244"
       y="155.6501" />
    <rect
       style="fill:#ece7b6;fill-opacity:0.854902;stroke-width:0.3;stroke-linecap:round;stroke-linejoin:round"
       id="rect56"
       width="4.2333331"
       height="4.2333331"
       x="177.94577"
       y="165.07724" />
    <rect
       style="fill:#ece7b6;fill-opacity:0.854902;stroke-width:0.3;stroke-linecap:round;stroke-linejoin:round"
       id="rect57"
       width="4.2333331"
       height="4.2333331"
       x="201.28917"
       y="176.25215" />
    <rect
       style="fill:#ece7b6;fill-opacity:0.854902;stroke:none;stroke-width:0.264583;stroke-linecap:round;stroke-linejoin:round;stroke-dasharray:none;stroke-opacity:1"
       id="rect58"
       width="8.4666662"
       height="8.4666662"
       x="215.85817"
       y="212.07349" />
    <rect
       style="fill:#ece7b6;fill-opacity:0.854902;stroke-width:0.3;stroke-linecap:round;stroke-linejoin:round"
       id="rect59"
       width="4.2333331"
       height="4.2333331"
       x="164.61398"
       y="149.23373" />
    <rect
       style="fill:#ece7b6;fill-opacity:0.854902;stroke-width:0.3;stroke-linecap:round;stroke-linejoin:round"
       id="rect60"
       width="4.2333331"
       height="4.2333331"
       x="164.61398"
       y="136.894" />
    <rect
       style="fill:#ece7b6;fill-opacity:0.854902;stroke-width:0.3;stroke-linecap:round;stroke-linejoin:round"
       id="rect61"
       width="4.2333331"
       height="4.2333331"
       x="163.53674"
       y="112.51549" />
    <rect
       style="fill:#ece7b6;fill-opacity:0.854902;stroke-width:0.3;stroke-linecap:round;stroke-linejoin:round"
       id="rect62"
       width="4.2333331"
       height="4.2333331"
       x="153.75993"
       y="123.7115" />
    <rect
       style="fill:#ece7b6;fill-opacity:0.854902;stroke-width:0.3;stroke-linecap:round;stroke-linejoin:round"
       id="rect63"
       width="4.2333331"
       height="4.2333331"
       x="163.53674"
       y="170.79095" />
    <rect
       style="fill:#ece7b6;fill-opacity:0.854902;stroke-width:0.3;stroke-linecap:round;stroke-linejoin:round"
       id="rect64"
       width="4.2333331"
       height="4.2333331"
       x="152.77289"
       y="149.60498" />
    <rect
       style="fill:#ece7b6;fill-opacity:0.854902;stroke-width:0.3;stroke-linecap:round;stroke-linejoin:round"
       id="rect65"
       width="4.2333331"
       height="4.2333331"
       x="140.93181"
       y="136.894" />
    <rect
       style="fill:#ece7b6;fill-opacity:0.854902;stroke-width:0.3;stroke-linecap:round;stroke-linejoin:round"
       id="rect67"
       width="4.2333331"
       height="4.2333331"
       x="143.53149"
       y="158.73306" />
    <rect
       style="fill:#ece7b6;fill-opacity:0.854902;stroke-width:0.3;stroke-linecap:round;stroke-linejoin:round"
       id="rect68"
       width="4.2333331"
       height="4.2333331"
       x="152.24037"
       y="170.79095" />
    <rect
       style="fill:#ece7b6;fill-opacity:0.854902;stroke:none;stroke-width:0.264583;stroke-linecap:round;stroke-linejoin:round;stroke-dasharray:none;stroke-opacity:1"
       id="rect69"
       width="8.4666662"
       height="8.4666662"
       x="125.56845"
       y="145.69685" />
    <rect
       style="fill:#ece7b6;fill-opacity:1;stroke:none;stroke-width:0.264583;stroke-linecap:round;stroke-linejoin:round;stroke-dasharray:none;stroke-opacity:1"
       id="rect70"
       width="16.933332"
       height="16.933332"
       x="221.88261"
       y="103.20464" />
    <path
       d="m 346.22217,245.26545 h 30.9684 v -84.56753 c 0,-25.31071 16.67529,-41.986 42.87931,-41.986 21.73743,0 30.67062,11.31538 30.67062,35.43499 v 91.11854 h 30.96839 v -93.50072 c 0,-40.19936 -18.7597,-61.341246 -53.30136,-61.341246 -22.63075,0 -40.19936,8.93319 -51.21696,26.204026 V 27.891152 h -30.9684 z m 208.36316,0 V 93.401214 h -30.9684 V 245.26545 Z M 518.85257,43.970895 c 0,13.102012 6.551,19.355245 20.24856,19.355245 13.69756,0 20.54634,-6.253233 20.54634,-19.355245 0,-12.80424 -6.84878,-19.057473 -20.54634,-19.057473 -13.69756,0 -20.24856,6.253233 -20.24856,19.057473 z M 628.95041,245.26545 v -84.56753 c 0,-25.31071 16.67529,-41.986 42.87931,-41.986 21.43966,0 30.67062,11.31538 30.67062,35.43499 v 91.11854 h 30.9684 v -93.50072 c 0,-40.19936 -18.7597,-61.341246 -53.59915,-61.341246 -22.33297,0 -39.90158,8.93319 -50.91918,26.204026 L 627.16377,93.401214 H 597.98202 V 245.26545 Z M 775.37676,27.891152 V 245.26545 h 30.96839 v -45.2615 l 22.63075,-21.73743 h 1.48887 l 50.91918,66.99893 h 37.81718 l -67.29671,-88.14081 65.21229,-63.723426 h -40.7949 L 807.53625,159.8046 h -1.1911 V 27.891152 Z M 1009.5675,200.30173 c 0,30.07507 20.5464,47.94145 52.7059,47.94145 24.1196,0 43.4748,-9.82651 54.1946,-25.01293 3.8711,15.78197 12.8043,23.82184 29.4796,23.82184 7.1465,0 13.9953,-1.19109 20.2485,-3.87105 v -25.60848 c -3.5733,1.19109 -7.4443,1.78664 -11.0176,1.78664 -8.0399,0 -10.7198,-3.2755 -10.7198,-12.80424 v -64.31897 c 0,-32.45726 -24.4174,-51.812506 -64.6167,-51.812506 -40.1994,0 -64.319,19.057476 -64.319,51.514736 h 29.1818 c 0.2977,-15.4842 13.102,-23.82184 34.5416,-23.82184 21.7374,0 35.1372,8.33764 35.1372,23.52406 v 13.39979 h -52.408 c -33.3506,0 -52.4081,16.37751 -52.4081,45.2615 z m 29.1818,-0.59555 c 0,-13.69756 9.231,-21.73743 25.6085,-21.73743 h 50.0258 v 9.52874 c 0,20.84411 -18.1641,35.13721 -44.9637,35.13721 -20.2486,0 -30.6706,-8.33764 -30.6706,-22.92852 z m 209.8522,48.23923 c 22.6307,0 40.7949,-8.63542 51.5147,-24.71516 v 21.73743 c 0,27.69289 -14.2931,41.09267 -43.1771,41.09267 -23.5241,0 -37.5194,-8.93319 -39.9016,-25.60848 h -30.075 c 3.2755,34.54167 27.9906,53.30137 70.2744,53.30137 47.6437,0 73.5499,-23.82184 73.5499,-68.78556 V 93.401214 h -29.4795 l -0.8933,21.737426 c -11.0176,-16.079739 -29.1818,-24.715156 -51.8125,-24.715156 -42.2838,0 -67.8923,29.777306 -67.8923,78.612076 0,48.83477 25.3107,78.90985 67.8923,78.90985 z m -38.4128,-78.61208 c 0,-33.94612 14.2932,-50.32364 43.7727,-50.32364 30.0751,0 46.1548,17.27084 46.1548,50.62142 0,33.0528 -16.0797,50.02586 -46.1548,50.02586 -29.4795,0 -43.7727,-16.37751 -43.7727,-50.32364 z m 194.6657,75.93212 V 93.401214 H 1373.886 V 245.26545 Z M 1369.1216,43.970895 c 0,13.102012 6.551,19.355245 20.2486,19.355245 13.6976,0 20.5463,-6.253233 20.5463,-19.355245 0,-12.80424 -6.8487,-19.057473 -20.5463,-19.057473 -13.6976,0 -20.2486,6.253233 -20.2486,19.057473 z m 79.1295,-16.079743 V 205.95941 c 0,28.28844 12.5065,42.28377 37.5194,42.28377 8.6354,0 18.4619,-1.78664 25.6085,-4.46659 v -26.5018 c -5.3599,1.48886 -10.4221,2.08441 -14.8887,2.08441 -12.2086,0 -16.973,-5.65769 -16.973,-18.16416 V 27.891152 Z"
       id="text2"
       style="font-weight:500;font-size:297.773px;line-height:1;font-family:'Salma Pro';-inkscape-font-specification:'Salma Pro Medium';letter-spacing:-0.0781656px;fill-opacity:1;stroke-width:0.264583;stroke-linecap:round;stroke-linejoin:round;fill:#ece7b6"
       aria-label="think agil"
       sodipodi:nodetypes="ccsssccsscccccccccssssscsssccssccccccccccccccccccccsscsccssssccsscsssscsssscssccsscccsssssssscccccssssscssccsscc" />
  </g>
</svg>
