<?xml version="1.0" encoding="UTF-8" standalone="no"?>
<!-- Created with Inkscape (http://www.inkscape.org/) -->

<svg
   width="75"
   height="75"
   viewBox="0 0 19.84375 19.84375"
   version="1.1"
   id="svg1"
   xml:space="preserve"
   sodipodi:docname="send.svg"
   inkscape:version="1.4.3 (0d15f75, 2025-12-25)"
   xmlns:inkscape="http://www.inkscape.org/namespaces/inkscape"
   xmlns:sodipodi="http://sodipodi.sourceforge.net/DTD/sodipodi-0.dtd"
   xmlns="http://www.w3.org/2000/svg"
   xmlns:svg="http://www.w3.org/2000/svg"><sodipodi:namedview
     id="namedview1"
     pagecolor="#ffffff"
     bordercolor="#000000"
     borderopacity="0.25"
     inkscape:showpageshadow="2"
     inkscape:pageopacity="0.0"
     inkscape:pagecheckerboard="0"
     inkscape:deskcolor="#d1d1d1"
     inkscape:document-units="px"
     inkscape:zoom="5.6945507"
     inkscape:cx="55.228237"
     inkscape:cy="35.384705"
     inkscape:window-width="1366"
     inkscape:window-height="745"
     inkscape:window-x="-8"
     inkscape:window-y="-8"
     inkscape:window-maximized="1"
     inkscape:current-layer="layer1" /><defs
     id="defs1" /><g
     inkscape:label="Слой 1"
     inkscape:groupmode="layer"
     id="layer1"><path
       style="fill:#ece6b0;stroke-width:1.70752;stroke-dasharray:none;fill-opacity:1"
       d="M 8.5068975,15.852202 C 8.3800904,15.80684 8.2881005,15.714531 8.2447593,15.58915 8.220584,15.519208 8.2184801,15.419666 8.2180348,14.322391 l -4.885e-4,-1.190854 0.1015516,-0.121095 c 0.055856,-0.0666 0.2518602,-0.305588 0.4355702,-0.531079 0.1837101,-0.225492 0.4519199,-0.554223 0.5960208,-0.730517 0.144101,-0.176293 0.4726205,-0.578822 0.7300431,-0.89451 0.257422,-0.315687 0.525921,-0.644419 0.596664,-0.730516 0.07074,-0.0861 0.262664,-0.3209059 0.42649,-0.521798 0.518281,-0.6355447 1.482391,-1.8166465 2.062733,-2.5269908 0.669058,-0.8189362 0.736792,-0.9027182 0.753302,-0.9317812 0.01666,-0.029337 0.15526,-0.1476278 -1.229826,1.0496683 -0.282889,0.2445347 -0.70168,0.6065264 -0.930646,0.8044262 -0.228966,0.1978998 -0.497503,0.4302604 -0.596748,0.516357 -0.09924,0.086097 -0.347575,0.3007789 -0.551844,0.477072 -0.204268,0.176293 -0.429237,0.3708489 -0.499932,0.4323465 -0.07069,0.061498 -0.2956639,0.2560537 -0.4999325,0.4323466 -0.2042681,0.1762934 -0.4526324,0.3909754 -0.55192,0.4770724 -0.099288,0.0861 -0.2671922,0.231314 -0.3731212,0.322705 -0.1059284,0.09139 -0.3569639,0.30845 -0.5578561,0.482354 -0.2008921,0.173904 -0.4491183,0.388638 -0.5516147,0.477188 -0.1024958,0.08855 -0.3066799,0.265047 -0.4537427,0.392214 l -0.2673866,0.231216 -0.069285,-0.02731 C 6.6824204,12.170052 4.5071405,11.278562 4.3278052,11.203442 4.1285333,11.119971 4.0690944,11.079712 4.0190474,10.994313 3.9871433,10.939871 3.9769666,10.900416 3.9718566,10.81135 3.9575205,10.561475 4.0034019,10.507437 4.4456958,10.253274 4.6219888,10.15197 4.9876197,9.9412771 5.258209,9.7850698 5.5287983,9.6288633 5.9682264,9.3755333 6.2347158,9.2221146 6.5012052,9.0686959 6.8098111,8.8907669 6.9205068,8.8267168 7.0312024,8.7626666 7.7121478,8.3700262 8.4337193,7.9541825 9.1552908,7.5383386 9.8999701,7.1090885 10.088563,7.0002931 10.277155,6.8914978 10.736709,6.626592 11.109794,6.4116136 11.482879,6.1966351 11.969269,5.9162169 12.19066,5.788462 12.412051,5.6607071 12.76091,5.4594625 12.965902,5.3412517 13.170894,5.2230409 13.429183,5.074044 13.539879,5.0101474 c 0.110695,-0.063897 0.332087,-0.1912837 0.491981,-0.2830826 0.159893,-0.091799 0.334322,-0.1925499 0.38762,-0.2238911 0.473265,-0.2782974 0.891331,-0.5092719 0.947294,-0.5233636 0.229631,-0.057822 0.476309,0.1181683 0.507245,0.3618875 0.0097,0.076567 -1.69197,10.3097694 -1.73229,10.4172294 -0.03272,0.08721 -0.113174,0.173808 -0.205829,0.221562 -0.06072,0.03129 -0.09591,0.0388 -0.179848,0.03838 -0.09679,-4.87e-4 -0.128148,-0.01031 -0.432346,-0.135401 -0.180393,-0.07418 -0.660074,-0.270456 -1.065958,-0.436164 -0.790731,-0.322828 -1.637429,-0.669036 -1.663083,-0.680022 -0.01363,-0.0058 -0.124988,0.123856 -0.468831,0.546038 -0.0936,0.114925 -0.7160338,0.872889 -1.0113282,1.231538 -0.1547933,0.188003 -0.2143034,0.249273 -0.2733069,0.281387 -0.099053,0.05391 -0.2281354,0.06394 -0.3343014,0.02596 z"
       id="path1" /></g></svg>
